<svg width="97" height="32" viewBox="0 0 97 32" fill="none" xmlns="http://www.w3.org/2000/svg">
<path d="M38.2184 6.90801C37.8976 6.90801 37.6176 6.83461 37.3784 6.6878C37.1446 6.541 36.9624 6.33982 36.8319 6.08427C36.7069 5.82872 36.6443 5.54054 36.6443 5.21975C36.6443 4.89895 36.7069 4.61077 36.8319 4.35522C36.9624 4.09967 37.1446 3.89849 37.3784 3.75169C37.6176 3.60488 37.8976 3.53148 38.2184 3.53148C38.648 3.53148 38.9905 3.64566 39.2461 3.87403C39.5016 4.09695 39.6539 4.396 39.7028 4.77117H38.9198C38.8872 4.59174 38.8084 4.45038 38.6833 4.34707C38.5637 4.24376 38.4087 4.19211 38.2184 4.19211C37.9629 4.19211 37.7671 4.28454 37.6312 4.46941C37.5007 4.65427 37.4355 4.90439 37.4355 5.21975C37.4355 5.53511 37.5007 5.78522 37.6312 5.97009C37.7671 6.15495 37.9629 6.24739 38.2184 6.24739C38.4142 6.24739 38.5718 6.19301 38.6915 6.08427C38.8165 5.97552 38.8926 5.826 38.9198 5.6357H39.7028C39.6593 6.0163 39.5043 6.32351 39.2379 6.55731C38.9769 6.79111 38.6371 6.90801 38.2184 6.90801ZM35.0703 5.21975C35.0703 4.63796 35.2062 4.11598 35.478 3.65382C35.7499 3.19165 36.1196 2.83279 36.5872 2.57724C37.0603 2.31625 37.5904 2.18576 38.1776 2.18576C38.7649 2.18576 39.2923 2.31625 39.7599 2.57724C40.2329 2.83279 40.6054 3.19165 40.8772 3.65382C41.1491 4.11598 41.285 4.63796 41.285 5.21975C41.285 5.80153 41.1491 6.32351 40.8772 6.78567C40.6054 7.24784 40.2329 7.60942 39.7599 7.8704C39.2923 8.12596 38.7649 8.25373 38.1776 8.25373C37.5904 8.25373 37.0603 8.12596 36.5872 7.8704C36.1196 7.60942 35.7499 7.24784 35.478 6.78567C35.2062 6.32351 35.0703 5.80153 35.0703 5.21975ZM35.8614 5.21975C35.8614 5.68191 35.9592 6.08699 36.155 6.43497C36.3507 6.77752 36.6226 7.04394 36.9706 7.23425C37.324 7.42455 37.7263 7.5197 38.1776 7.5197C38.6289 7.5197 39.0286 7.42455 39.3766 7.23425C39.73 7.04394 40.0046 6.77752 40.2003 6.43497C40.396 6.08699 40.4939 5.68191 40.4939 5.21975C40.4939 4.75758 40.396 4.35522 40.2003 4.01268C40.0046 3.66469 39.73 3.39555 39.3766 3.20524C39.0286 3.01494 38.6289 2.91979 38.1776 2.91979C37.7263 2.91979 37.324 3.01494 36.9706 3.20524C36.6226 3.39555 36.3507 3.66469 36.155 4.01268C35.9592 4.35522 35.8614 4.75758 35.8614 5.21975Z" fill="#0C0C0C"/>
<path d="M38.2184 6.90801C37.8976 6.90801 37.6176 6.83461 37.3784 6.6878C37.1446 6.541 36.9624 6.33982 36.8319 6.08427C36.7069 5.82872 36.6443 5.54054 36.6443 5.21975C36.6443 4.89895 36.7069 4.61077 36.8319 4.35522C36.9624 4.09967 37.1446 3.89849 37.3784 3.75169C37.6176 3.60488 37.8976 3.53148 38.2184 3.53148C38.648 3.53148 38.9905 3.64566 39.2461 3.87403C39.5016 4.09695 39.6539 4.396 39.7028 4.77117H38.9198C38.8872 4.59174 38.8084 4.45038 38.6833 4.34707C38.5637 4.24376 38.4087 4.19211 38.2184 4.19211C37.9629 4.19211 37.7671 4.28454 37.6312 4.46941C37.5007 4.65427 37.4355 4.90439 37.4355 5.21975C37.4355 5.53511 37.5007 5.78522 37.6312 5.97009C37.7671 6.15495 37.9629 6.24739 38.2184 6.24739C38.4142 6.24739 38.5718 6.19301 38.6915 6.08427C38.8165 5.97552 38.8926 5.826 38.9198 5.6357H39.7028C39.6593 6.0163 39.5043 6.32351 39.2379 6.55731C38.9769 6.79111 38.6371 6.90801 38.2184 6.90801ZM35.0703 5.21975C35.0703 4.63796 35.2062 4.11598 35.478 3.65382C35.7499 3.19165 36.1196 2.83279 36.5872 2.57724C37.0603 2.31625 37.5904 2.18576 38.1776 2.18576C38.7649 2.18576 39.2923 2.31625 39.7599 2.57724C40.2329 2.83279 40.6054 3.19165 40.8772 3.65382C41.1491 4.11598 41.285 4.63796 41.285 5.21975C41.285 5.80153 41.1491 6.32351 40.8772 6.78567C40.6054 7.24784 40.2329 7.60942 39.7599 7.8704C39.2923 8.12596 38.7649 8.25373 38.1776 8.25373C37.5904 8.25373 37.0603 8.12596 36.5872 7.8704C36.1196 7.60942 35.7499 7.24784 35.478 6.78567C35.2062 6.32351 35.0703 5.80153 35.0703 5.21975ZM35.8614 5.21975C35.8614 5.68191 35.9592 6.08699 36.155 6.43497C36.3507 6.77752 36.6226 7.04394 36.9706 7.23425C37.324 7.42455 37.7263 7.5197 38.1776 7.5197C38.6289 7.5197 39.0286 7.42455 39.3766 7.23425C39.73 7.04394 40.0046 6.77752 40.2003 6.43497C40.396 6.08699 40.4939 5.68191 40.4939 5.21975C40.4939 4.75758 40.396 4.35522 40.2003 4.01268C40.0046 3.66469 39.73 3.39555 39.3766 3.20524C39.0286 3.01494 38.6289 2.91979 38.1776 2.91979C37.7263 2.91979 37.324 3.01494 36.9706 3.20524C36.6226 3.39555 36.3507 3.66469 36.155 4.01268C35.9592 4.35522 35.8614 4.75758 35.8614 5.21975Z" fill="black" fill-opacity="0.2"/>
<path d="M38.2184 6.90801C37.8976 6.90801 37.6176 6.83461 37.3784 6.6878C37.1446 6.541 36.9624 6.33982 36.8319 6.08427C36.7069 5.82872 36.6443 5.54054 36.6443 5.21975C36.6443 4.89895 36.7069 4.61077 36.8319 4.35522C36.9624 4.09967 37.1446 3.89849 37.3784 3.75169C37.6176 3.60488 37.8976 3.53148 38.2184 3.53148C38.648 3.53148 38.9905 3.64566 39.2461 3.87403C39.5016 4.09695 39.6539 4.396 39.7028 4.77117H38.9198C38.8872 4.59174 38.8084 4.45038 38.6833 4.34707C38.5637 4.24376 38.4087 4.19211 38.2184 4.19211C37.9629 4.19211 37.7671 4.28454 37.6312 4.46941C37.5007 4.65427 37.4355 4.90439 37.4355 5.21975C37.4355 5.53511 37.5007 5.78522 37.6312 5.97009C37.7671 6.15495 37.9629 6.24739 38.2184 6.24739C38.4142 6.24739 38.5718 6.19301 38.6915 6.08427C38.8165 5.97552 38.8926 5.826 38.9198 5.6357H39.7028C39.6593 6.0163 39.5043 6.32351 39.2379 6.55731C38.9769 6.79111 38.6371 6.90801 38.2184 6.90801ZM35.0703 5.21975C35.0703 4.63796 35.2062 4.11598 35.478 3.65382C35.7499 3.19165 36.1196 2.83279 36.5872 2.57724C37.0603 2.31625 37.5904 2.18576 38.1776 2.18576C38.7649 2.18576 39.2923 2.31625 39.7599 2.57724C40.2329 2.83279 40.6054 3.19165 40.8772 3.65382C41.1491 4.11598 41.285 4.63796 41.285 5.21975C41.285 5.80153 41.1491 6.32351 40.8772 6.78567C40.6054 7.24784 40.2329 7.60942 39.7599 7.8704C39.2923 8.12596 38.7649 8.25373 38.1776 8.25373C37.5904 8.25373 37.0603 8.12596 36.5872 7.8704C36.1196 7.60942 35.7499 7.24784 35.478 6.78567C35.2062 6.32351 35.0703 5.80153 35.0703 5.21975ZM35.8614 5.21975C35.8614 5.68191 35.9592 6.08699 36.155 6.43497C36.3507 6.77752 36.6226 7.04394 36.9706 7.23425C37.324 7.42455 37.7263 7.5197 38.1776 7.5197C38.6289 7.5197 39.0286 7.42455 39.3766 7.23425C39.73 7.04394 40.0046 6.77752 40.2003 6.43497C40.396 6.08699 40.4939 5.68191 40.4939 5.21975C40.4939 4.75758 40.396 4.35522 40.2003 4.01268C40.0046 3.66469 39.73 3.39555 39.3766 3.20524C39.0286 3.01494 38.6289 2.91979 38.1776 2.91979C37.7263 2.91979 37.324 3.01494 36.9706 3.20524C36.6226 3.39555 36.3507 3.66469 36.155 4.01268C35.9592 4.35522 35.8614 4.75758 35.8614 5.21975Z" fill="black" fill-opacity="0.2"/>
<path d="M38.2184 6.90801C37.8976 6.90801 37.6176 6.83461 37.3784 6.6878C37.1446 6.541 36.9624 6.33982 36.8319 6.08427C36.7069 5.82872 36.6443 5.54054 36.6443 5.21975C36.6443 4.89895 36.7069 4.61077 36.8319 4.35522C36.9624 4.09967 37.1446 3.89849 37.3784 3.75169C37.6176 3.60488 37.8976 3.53148 38.2184 3.53148C38.648 3.53148 38.9905 3.64566 39.2461 3.87403C39.5016 4.09695 39.6539 4.396 39.7028 4.77117H38.9198C38.8872 4.59174 38.8084 4.45038 38.6833 4.34707C38.5637 4.24376 38.4087 4.19211 38.2184 4.19211C37.9629 4.19211 37.7671 4.28454 37.6312 4.46941C37.5007 4.65427 37.4355 4.90439 37.4355 5.21975C37.4355 5.53511 37.5007 5.78522 37.6312 5.97009C37.7671 6.15495 37.9629 6.24739 38.2184 6.24739C38.4142 6.24739 38.5718 6.19301 38.6915 6.08427C38.8165 5.97552 38.8926 5.826 38.9198 5.6357H39.7028C39.6593 6.0163 39.5043 6.32351 39.2379 6.55731C38.9769 6.79111 38.6371 6.90801 38.2184 6.90801ZM35.0703 5.21975C35.0703 4.63796 35.2062 4.11598 35.478 3.65382C35.7499 3.19165 36.1196 2.83279 36.5872 2.57724C37.0603 2.31625 37.5904 2.18576 38.1776 2.18576C38.7649 2.18576 39.2923 2.31625 39.7599 2.57724C40.2329 2.83279 40.6054 3.19165 40.8772 3.65382C41.1491 4.11598 41.285 4.63796 41.285 5.21975C41.285 5.80153 41.1491 6.32351 40.8772 6.78567C40.6054 7.24784 40.2329 7.60942 39.7599 7.8704C39.2923 8.12596 38.7649 8.25373 38.1776 8.25373C37.5904 8.25373 37.0603 8.12596 36.5872 7.8704C36.1196 7.60942 35.7499 7.24784 35.478 6.78567C35.2062 6.32351 35.0703 5.80153 35.0703 5.21975ZM35.8614 5.21975C35.8614 5.68191 35.9592 6.08699 36.155 6.43497C36.3507 6.77752 36.6226 7.04394 36.9706 7.23425C37.324 7.42455 37.7263 7.5197 38.1776 7.5197C38.6289 7.5197 39.0286 7.42455 39.3766 7.23425C39.73 7.04394 40.0046 6.77752 40.2003 6.43497C40.396 6.08699 40.4939 5.68191 40.4939 5.21975C40.4939 4.75758 40.396 4.35522 40.2003 4.01268C40.0046 3.66469 39.73 3.39555 39.3766 3.20524C39.0286 3.01494 38.6289 2.91979 38.1776 2.91979C37.7263 2.91979 37.324 3.01494 36.9706 3.20524C36.6226 3.39555 36.3507 3.66469 36.155 4.01268C35.9592 4.35522 35.8614 4.75758 35.8614 5.21975Z" fill="black" fill-opacity="0.2"/>
<path d="M38.2184 6.90801C37.8976 6.90801 37.6176 6.83461 37.3784 6.6878C37.1446 6.541 36.9624 6.33982 36.8319 6.08427C36.7069 5.82872 36.6443 5.54054 36.6443 5.21975C36.6443 4.89895 36.7069 4.61077 36.8319 4.35522C36.9624 4.09967 37.1446 3.89849 37.3784 3.75169C37.6176 3.60488 37.8976 3.53148 38.2184 3.53148C38.648 3.53148 38.9905 3.64566 39.2461 3.87403C39.5016 4.09695 39.6539 4.396 39.7028 4.77117H38.9198C38.8872 4.59174 38.8084 4.45038 38.6833 4.34707C38.5637 4.24376 38.4087 4.19211 38.2184 4.19211C37.9629 4.19211 37.7671 4.28454 37.6312 4.46941C37.5007 4.65427 37.4355 4.90439 37.4355 5.21975C37.4355 5.53511 37.5007 5.78522 37.6312 5.97009C37.7671 6.15495 37.9629 6.24739 38.2184 6.24739C38.4142 6.24739 38.5718 6.19301 38.6915 6.08427C38.8165 5.97552 38.8926 5.826 38.9198 5.6357H39.7028C39.6593 6.0163 39.5043 6.32351 39.2379 6.55731C38.9769 6.79111 38.6371 6.90801 38.2184 6.90801ZM35.0703 5.21975C35.0703 4.63796 35.2062 4.11598 35.478 3.65382C35.7499 3.19165 36.1196 2.83279 36.5872 2.57724C37.0603 2.31625 37.5904 2.18576 38.1776 2.18576C38.7649 2.18576 39.2923 2.31625 39.7599 2.57724C40.2329 2.83279 40.6054 3.19165 40.8772 3.65382C41.1491 4.11598 41.285 4.63796 41.285 5.21975C41.285 5.80153 41.1491 6.32351 40.8772 6.78567C40.6054 7.24784 40.2329 7.60942 39.7599 7.8704C39.2923 8.12596 38.7649 8.25373 38.1776 8.25373C37.5904 8.25373 37.0603 8.12596 36.5872 7.8704C36.1196 7.60942 35.7499 7.24784 35.478 6.78567C35.2062 6.32351 35.0703 5.80153 35.0703 5.21975ZM35.8614 5.21975C35.8614 5.68191 35.9592 6.08699 36.155 6.43497C36.3507 6.77752 36.6226 7.04394 36.9706 7.23425C37.324 7.42455 37.7263 7.5197 38.1776 7.5197C38.6289 7.5197 39.0286 7.42455 39.3766 7.23425C39.73 7.04394 40.0046 6.77752 40.2003 6.43497C40.396 6.08699 40.4939 5.68191 40.4939 5.21975C40.4939 4.75758 40.396 4.35522 40.2003 4.01268C40.0046 3.66469 39.73 3.39555 39.3766 3.20524C39.0286 3.01494 38.6289 2.91979 38.1776 2.91979C37.7263 2.91979 37.324 3.01494 36.9706 3.20524C36.6226 3.39555 36.3507 3.66469 36.155 4.01268C35.9592 4.35522 35.8614 4.75758 35.8614 5.21975Z" fill="black" fill-opacity="0.2"/>
<path fill-rule="evenodd" clip-rule="evenodd" d="M0 6C0 2.68629 2.68629 0 6 0H25.8079C29.1216 0 31.8079 2.68629 31.8079 6V29.6489C31.8079 30.8413 30.8413 31.8079 29.6489 31.8079V31.8079C28.4638 31.8079 27.5199 30.8491 27.3802 29.6724C27.0925 27.2491 26.3251 25.4408 25.0781 24.2475C23.457 22.667 21.3275 21.8767 18.6893 21.8767C17.1637 21.8767 15.781 22.1694 14.5414 22.7548C14.1822 22.916 13.8363 23.0943 13.5037 23.2899C12.608 23.8167 11.2623 23.255 11.2407 22.2161V22.2161C11.2241 21.4223 11.9915 20.8425 12.7719 20.9884C13.76 21.1732 14.804 21.2656 15.9039 21.2656C18.1227 21.2656 20.0996 20.8897 21.8347 20.1379C23.5983 19.4089 24.9779 18.304 25.9735 16.8233C26.9975 15.3653 27.5095 13.5883 27.5095 11.4925C27.5095 9.39659 26.9975 7.60827 25.9735 6.12749C24.9779 4.66949 23.5983 3.56461 21.8347 2.81283C20.0996 2.08383 18.1227 1.71933 15.9039 1.71933C13.6852 1.71933 11.6941 2.08383 9.93048 2.81283C8.19533 3.5646 6.81574 4.66949 5.79172 6.12749C4.79614 7.60826 4.29836 9.39659 4.29836 11.4925C4.29836 11.5057 4.29838 11.519 4.29842 11.5323L4.29841 29.6587C4.29841 30.8457 3.33618 31.8079 2.14921 31.8079V31.8079C0.962232 31.8079 0 30.8457 0 29.6587V6ZM18.727 29.7856V29.7856C19.7175 30.5217 18.7233 31.8079 17.4891 31.8079H15.8841C13.6869 31.8079 12.2614 29.3385 14.3718 28.7272C14.6679 28.6415 14.9765 28.5954 15.2932 28.5954C16.4692 28.5954 17.6176 28.9611 18.727 29.7856ZM12.3625 9.40798C13.1305 9.0207 14.311 8.82706 15.9039 8.82706C17.4969 8.82706 18.6631 9.0207 19.4027 9.40798C20.1707 9.81804 20.5547 10.5129 20.5547 11.4925C20.5547 12.472 20.1707 13.1555 19.4027 13.5428C18.6631 13.9528 17.4969 14.1579 15.9039 14.1579C14.311 14.1579 13.1305 13.9528 12.3625 13.5428C11.623 13.1555 11.2532 12.472 11.2532 11.4925C11.2532 10.5129 11.623 9.81804 12.3625 9.40798Z" fill="#0C0C0C"/>
<path fill-rule="evenodd" clip-rule="evenodd" d="M0 6C0 2.68629 2.68629 0 6 0H25.8079C29.1216 0 31.8079 2.68629 31.8079 6V29.6489C31.8079 30.8413 30.8413 31.8079 29.6489 31.8079V31.8079C28.4638 31.8079 27.5199 30.8491 27.3802 29.6724C27.0925 27.2491 26.3251 25.4408 25.0781 24.2475C23.457 22.667 21.3275 21.8767 18.6893 21.8767C17.1637 21.8767 15.781 22.1694 14.5414 22.7548C14.1822 22.916 13.8363 23.0943 13.5037 23.2899C12.608 23.8167 11.2623 23.255 11.2407 22.2161V22.2161C11.2241 21.4223 11.9915 20.8425 12.7719 20.9884C13.76 21.1732 14.804 21.2656 15.9039 21.2656C18.1227 21.2656 20.0996 20.8897 21.8347 20.1379C23.5983 19.4089 24.9779 18.304 25.9735 16.8233C26.9975 15.3653 27.5095 13.5883 27.5095 11.4925C27.5095 9.39659 26.9975 7.60827 25.9735 6.12749C24.9779 4.66949 23.5983 3.56461 21.8347 2.81283C20.0996 2.08383 18.1227 1.71933 15.9039 1.71933C13.6852 1.71933 11.6941 2.08383 9.93048 2.81283C8.19533 3.5646 6.81574 4.66949 5.79172 6.12749C4.79614 7.60826 4.29836 9.39659 4.29836 11.4925C4.29836 11.5057 4.29838 11.519 4.29842 11.5323L4.29841 29.6587C4.29841 30.8457 3.33618 31.8079 2.14921 31.8079V31.8079C0.962232 31.8079 0 30.8457 0 29.6587V6ZM18.727 29.7856V29.7856C19.7175 30.5217 18.7233 31.8079 17.4891 31.8079H15.8841C13.6869 31.8079 12.2614 29.3385 14.3718 28.7272C14.6679 28.6415 14.9765 28.5954 15.2932 28.5954C16.4692 28.5954 17.6176 28.9611 18.727 29.7856ZM12.3625 9.40798C13.1305 9.0207 14.311 8.82706 15.9039 8.82706C17.4969 8.82706 18.6631 9.0207 19.4027 9.40798C20.1707 9.81804 20.5547 10.5129 20.5547 11.4925C20.5547 12.472 20.1707 13.1555 19.4027 13.5428C18.6631 13.9528 17.4969 14.1579 15.9039 14.1579C14.311 14.1579 13.1305 13.9528 12.3625 13.5428C11.623 13.1555 11.2532 12.472 11.2532 11.4925C11.2532 10.5129 11.623 9.81804 12.3625 9.40798Z" fill="black" fill-opacity="0.2"/>
<path fill-rule="evenodd" clip-rule="evenodd" d="M0 6C0 2.68629 2.68629 0 6 0H25.8079C29.1216 0 31.8079 2.68629 31.8079 6V29.6489C31.8079 30.8413 30.8413 31.8079 29.6489 31.8079V31.8079C28.4638 31.8079 27.5199 30.8491 27.3802 29.6724C27.0925 27.2491 26.3251 25.4408 25.0781 24.2475C23.457 22.667 21.3275 21.8767 18.6893 21.8767C17.1637 21.8767 15.781 22.1694 14.5414 22.7548C14.1822 22.916 13.8363 23.0943 13.5037 23.2899C12.608 23.8167 11.2623 23.255 11.2407 22.2161V22.2161C11.2241 21.4223 11.9915 20.8425 12.7719 20.9884C13.76 21.1732 14.804 21.2656 15.9039 21.2656C18.1227 21.2656 20.0996 20.8897 21.8347 20.1379C23.5983 19.4089 24.9779 18.304 25.9735 16.8233C26.9975 15.3653 27.5095 13.5883 27.5095 11.4925C27.5095 9.39659 26.9975 7.60827 25.9735 6.12749C24.9779 4.66949 23.5983 3.56461 21.8347 2.81283C20.0996 2.08383 18.1227 1.71933 15.9039 1.71933C13.6852 1.71933 11.6941 2.08383 9.93048 2.81283C8.19533 3.5646 6.81574 4.66949 5.79172 6.12749C4.79614 7.60826 4.29836 9.39659 4.29836 11.4925C4.29836 11.5057 4.29838 11.519 4.29842 11.5323L4.29841 29.6587C4.29841 30.8457 3.33618 31.8079 2.14921 31.8079V31.8079C0.962232 31.8079 0 30.8457 0 29.6587V6ZM18.727 29.7856V29.7856C19.7175 30.5217 18.7233 31.8079 17.4891 31.8079H15.8841C13.6869 31.8079 12.2614 29.3385 14.3718 28.7272C14.6679 28.6415 14.9765 28.5954 15.2932 28.5954C16.4692 28.5954 17.6176 28.9611 18.727 29.7856ZM12.3625 9.40798C13.1305 9.0207 14.311 8.82706 15.9039 8.82706C17.4969 8.82706 18.6631 9.0207 19.4027 9.40798C20.1707 9.81804 20.5547 10.5129 20.5547 11.4925C20.5547 12.472 20.1707 13.1555 19.4027 13.5428C18.6631 13.9528 17.4969 14.1579 15.9039 14.1579C14.311 14.1579 13.1305 13.9528 12.3625 13.5428C11.623 13.1555 11.2532 12.472 11.2532 11.4925C11.2532 10.5129 11.623 9.81804 12.3625 9.40798Z" fill="black" fill-opacity="0.2"/>
<path fill-rule="evenodd" clip-rule="evenodd" d="M0 6C0 2.68629 2.68629 0 6 0H25.8079C29.1216 0 31.8079 2.68629 31.8079 6V29.6489C31.8079 30.8413 30.8413 31.8079 29.6489 31.8079V31.8079C28.4638 31.8079 27.5199 30.8491 27.3802 29.6724C27.0925 27.2491 26.3251 25.4408 25.0781 24.2475C23.457 22.667 21.3275 21.8767 18.6893 21.8767C17.1637 21.8767 15.781 22.1694 14.5414 22.7548C14.1822 22.916 13.8363 23.0943 13.5037 23.2899C12.608 23.8167 11.2623 23.255 11.2407 22.2161V22.2161C11.2241 21.4223 11.9915 20.8425 12.7719 20.9884C13.76 21.1732 14.804 21.2656 15.9039 21.2656C18.1227 21.2656 20.0996 20.8897 21.8347 20.1379C23.5983 19.4089 24.9779 18.304 25.9735 16.8233C26.9975 15.3653 27.5095 13.5883 27.5095 11.4925C27.5095 9.39659 26.9975 7.60827 25.9735 6.12749C24.9779 4.66949 23.5983 3.56461 21.8347 2.81283C20.0996 2.08383 18.1227 1.71933 15.9039 1.71933C13.6852 1.71933 11.6941 2.08383 9.93048 2.81283C8.19533 3.5646 6.81574 4.66949 5.79172 6.12749C4.79614 7.60826 4.29836 9.39659 4.29836 11.4925C4.29836 11.5057 4.29838 11.519 4.29842 11.5323L4.29841 29.6587C4.29841 30.8457 3.33618 31.8079 2.14921 31.8079V31.8079C0.962232 31.8079 0 30.8457 0 29.6587V6ZM18.727 29.7856V29.7856C19.7175 30.5217 18.7233 31.8079 17.4891 31.8079H15.8841C13.6869 31.8079 12.2614 29.3385 14.3718 28.7272C14.6679 28.6415 14.9765 28.5954 15.2932 28.5954C16.4692 28.5954 17.6176 28.9611 18.727 29.7856ZM12.3625 9.40798C13.1305 9.0207 14.311 8.82706 15.9039 8.82706C17.4969 8.82706 18.6631 9.0207 19.4027 9.40798C20.1707 9.81804 20.5547 10.5129 20.5547 11.4925C20.5547 12.472 20.1707 13.1555 19.4027 13.5428C18.6631 13.9528 17.4969 14.1579 15.9039 14.1579C14.311 14.1579 13.1305 13.9528 12.3625 13.5428C11.623 13.1555 11.2532 12.472 11.2532 11.4925C11.2532 10.5129 11.623 9.81804 12.3625 9.40798Z" fill="black" fill-opacity="0.2"/>
<path fill-rule="evenodd" clip-rule="evenodd" d="M0 6C0 2.68629 2.68629 0 6 0H25.8079C29.1216 0 31.8079 2.68629 31.8079 6V29.6489C31.8079 30.8413 30.8413 31.8079 29.6489 31.8079V31.8079C28.4638 31.8079 27.5199 30.8491 27.3802 29.6724C27.0925 27.2491 26.3251 25.4408 25.0781 24.2475C23.457 22.667 21.3275 21.8767 18.6893 21.8767C17.1637 21.8767 15.781 22.1694 14.5414 22.7548C14.1822 22.916 13.8363 23.0943 13.5037 23.2899C12.608 23.8167 11.2623 23.255 11.2407 22.2161V22.2161C11.2241 21.4223 11.9915 20.8425 12.7719 20.9884C13.76 21.1732 14.804 21.2656 15.9039 21.2656C18.1227 21.2656 20.0996 20.8897 21.8347 20.1379C23.5983 19.4089 24.9779 18.304 25.9735 16.8233C26.9975 15.3653 27.5095 13.5883 27.5095 11.4925C27.5095 9.39659 26.9975 7.60827 25.9735 6.12749C24.9779 4.66949 23.5983 3.56461 21.8347 2.81283C20.0996 2.08383 18.1227 1.71933 15.9039 1.71933C13.6852 1.71933 11.6941 2.08383 9.93048 2.81283C8.19533 3.5646 6.81574 4.66949 5.79172 6.12749C4.79614 7.60826 4.29836 9.39659 4.29836 11.4925C4.29836 11.5057 4.29838 11.519 4.29842 11.5323L4.29841 29.6587C4.29841 30.8457 3.33618 31.8079 2.14921 31.8079V31.8079C0.962232 31.8079 0 30.8457 0 29.6587V6ZM18.727 29.7856V29.7856C19.7175 30.5217 18.7233 31.8079 17.4891 31.8079H15.8841C13.6869 31.8079 12.2614 29.3385 14.3718 28.7272C14.6679 28.6415 14.9765 28.5954 15.2932 28.5954C16.4692 28.5954 17.6176 28.9611 18.727 29.7856ZM12.3625 9.40798C13.1305 9.0207 14.311 8.82706 15.9039 8.82706C17.4969 8.82706 18.6631 9.0207 19.4027 9.40798C20.1707 9.81804 20.5547 10.5129 20.5547 11.4925C20.5547 12.472 20.1707 13.1555 19.4027 13.5428C18.6631 13.9528 17.4969 14.1579 15.9039 14.1579C14.311 14.1579 13.1305 13.9528 12.3625 13.5428C11.623 13.1555 11.2532 12.472 11.2532 11.4925C11.2532 10.5129 11.623 9.81804 12.3625 9.40798Z" fill="black" fill-opacity="0.2"/>
<path d="M52.302 14.9039C49.3964 14.9039 47.7907 13.8143 47.8099 11.8454L51.0881 11.3675C51.0404 12.2755 51.4704 12.7821 52.2828 12.7821C52.885 12.7821 53.2195 12.5336 53.2195 12.1226C53.2195 11.6065 52.7703 11.2911 51.5565 10.8419L50.3522 10.3927C49.1479 9.95301 47.9628 9.0737 47.9628 7.57315C47.9628 5.55648 49.4538 4.40956 52.149 4.40956C54.959 4.40956 56.4022 5.45135 56.4118 7.32465L53.2482 7.74519C53.3151 6.92323 52.9328 6.50269 52.1968 6.50269C51.6138 6.50269 51.2793 6.73207 51.2793 7.14305C51.2793 7.57315 51.6712 7.88855 52.885 8.29953L54.0892 8.71051C55.2935 9.12149 56.7367 9.80964 56.7367 11.7498C56.7367 13.7665 55.1406 14.9039 52.302 14.9039Z" fill="#0C0C0C"/>
<path d="M52.302 14.9039C49.3964 14.9039 47.7907 13.8143 47.8099 11.8454L51.0881 11.3675C51.0404 12.2755 51.4704 12.7821 52.2828 12.7821C52.885 12.7821 53.2195 12.5336 53.2195 12.1226C53.2195 11.6065 52.7703 11.2911 51.5565 10.8419L50.3522 10.3927C49.1479 9.95301 47.9628 9.0737 47.9628 7.57315C47.9628 5.55648 49.4538 4.40956 52.149 4.40956C54.959 4.40956 56.4022 5.45135 56.4118 7.32465L53.2482 7.74519C53.3151 6.92323 52.9328 6.50269 52.1968 6.50269C51.6138 6.50269 51.2793 6.73207 51.2793 7.14305C51.2793 7.57315 51.6712 7.88855 52.885 8.29953L54.0892 8.71051C55.2935 9.12149 56.7367 9.80964 56.7367 11.7498C56.7367 13.7665 55.1406 14.9039 52.302 14.9039Z" fill="black" fill-opacity="0.2"/>
<path d="M52.302 14.9039C49.3964 14.9039 47.7907 13.8143 47.8099 11.8454L51.0881 11.3675C51.0404 12.2755 51.4704 12.7821 52.2828 12.7821C52.885 12.7821 53.2195 12.5336 53.2195 12.1226C53.2195 11.6065 52.7703 11.2911 51.5565 10.8419L50.3522 10.3927C49.1479 9.95301 47.9628 9.0737 47.9628 7.57315C47.9628 5.55648 49.4538 4.40956 52.149 4.40956C54.959 4.40956 56.4022 5.45135 56.4118 7.32465L53.2482 7.74519C53.3151 6.92323 52.9328 6.50269 52.1968 6.50269C51.6138 6.50269 51.2793 6.73207 51.2793 7.14305C51.2793 7.57315 51.6712 7.88855 52.885 8.29953L54.0892 8.71051C55.2935 9.12149 56.7367 9.80964 56.7367 11.7498C56.7367 13.7665 55.1406 14.9039 52.302 14.9039Z" fill="black" fill-opacity="0.2"/>
<path d="M52.302 14.9039C49.3964 14.9039 47.7907 13.8143 47.8099 11.8454L51.0881 11.3675C51.0404 12.2755 51.4704 12.7821 52.2828 12.7821C52.885 12.7821 53.2195 12.5336 53.2195 12.1226C53.2195 11.6065 52.7703 11.2911 51.5565 10.8419L50.3522 10.3927C49.1479 9.95301 47.9628 9.0737 47.9628 7.57315C47.9628 5.55648 49.4538 4.40956 52.149 4.40956C54.959 4.40956 56.4022 5.45135 56.4118 7.32465L53.2482 7.74519C53.3151 6.92323 52.9328 6.50269 52.1968 6.50269C51.6138 6.50269 51.2793 6.73207 51.2793 7.14305C51.2793 7.57315 51.6712 7.88855 52.885 8.29953L54.0892 8.71051C55.2935 9.12149 56.7367 9.80964 56.7367 11.7498C56.7367 13.7665 55.1406 14.9039 52.302 14.9039Z" fill="black" fill-opacity="0.2"/>
<path d="M52.302 14.9039C49.3964 14.9039 47.7907 13.8143 47.8099 11.8454L51.0881 11.3675C51.0404 12.2755 51.4704 12.7821 52.2828 12.7821C52.885 12.7821 53.2195 12.5336 53.2195 12.1226C53.2195 11.6065 52.7703 11.2911 51.5565 10.8419L50.3522 10.3927C49.1479 9.95301 47.9628 9.0737 47.9628 7.57315C47.9628 5.55648 49.4538 4.40956 52.149 4.40956C54.959 4.40956 56.4022 5.45135 56.4118 7.32465L53.2482 7.74519C53.3151 6.92323 52.9328 6.50269 52.1968 6.50269C51.6138 6.50269 51.2793 6.73207 51.2793 7.14305C51.2793 7.57315 51.6712 7.88855 52.885 8.29953L54.0892 8.71051C55.2935 9.12149 56.7367 9.80964 56.7367 11.7498C56.7367 13.7665 55.1406 14.9039 52.302 14.9039Z" fill="black" fill-opacity="0.2"/>
<path d="M60.7197 14.9325C58.6457 14.9325 57.623 13.9003 57.623 11.7594V7.08571H56.3901V4.63894H57.623V2.62228L61.0542 1.67607V4.63894H63.1665V7.08571H61.0542V11.3198C61.0542 11.9983 61.3601 12.2851 61.9622 12.2851C62.3254 12.2851 62.7746 12.2086 63.2429 12.0652L63.0518 14.4833C62.3827 14.7605 61.5417 14.9325 60.7197 14.9325Z" fill="#0C0C0C"/>
<path d="M60.7197 14.9325C58.6457 14.9325 57.623 13.9003 57.623 11.7594V7.08571H56.3901V4.63894H57.623V2.62228L61.0542 1.67607V4.63894H63.1665V7.08571H61.0542V11.3198C61.0542 11.9983 61.3601 12.2851 61.9622 12.2851C62.3254 12.2851 62.7746 12.2086 63.2429 12.0652L63.0518 14.4833C62.3827 14.7605 61.5417 14.9325 60.7197 14.9325Z" fill="black" fill-opacity="0.2"/>
<path d="M60.7197 14.9325C58.6457 14.9325 57.623 13.9003 57.623 11.7594V7.08571H56.3901V4.63894H57.623V2.62228L61.0542 1.67607V4.63894H63.1665V7.08571H61.0542V11.3198C61.0542 11.9983 61.3601 12.2851 61.9622 12.2851C62.3254 12.2851 62.7746 12.2086 63.2429 12.0652L63.0518 14.4833C62.3827 14.7605 61.5417 14.9325 60.7197 14.9325Z" fill="black" fill-opacity="0.2"/>
<path d="M60.7197 14.9325C58.6457 14.9325 57.623 13.9003 57.623 11.7594V7.08571H56.3901V4.63894H57.623V2.62228L61.0542 1.67607V4.63894H63.1665V7.08571H61.0542V11.3198C61.0542 11.9983 61.3601 12.2851 61.9622 12.2851C62.3254 12.2851 62.7746 12.2086 63.2429 12.0652L63.0518 14.4833C62.3827 14.7605 61.5417 14.9325 60.7197 14.9325Z" fill="black" fill-opacity="0.2"/>
<path d="M60.7197 14.9325C58.6457 14.9325 57.623 13.9003 57.623 11.7594V7.08571H56.3901V4.63894H57.623V2.62228L61.0542 1.67607V4.63894H63.1665V7.08571H61.0542V11.3198C61.0542 11.9983 61.3601 12.2851 61.9622 12.2851C62.3254 12.2851 62.7746 12.2086 63.2429 12.0652L63.0518 14.4833C62.3827 14.7605 61.5417 14.9325 60.7197 14.9325Z" fill="black" fill-opacity="0.2"/>
<path d="M72.7025 4.63894V14.6745H69.3477C69.3573 13.929 69.472 13.4129 69.8638 12.3902L69.6727 12.2946C68.8794 14.0246 67.7516 14.8274 66.2319 14.8274C64.4351 14.8274 63.5653 13.9194 63.5653 12.0939V4.63894H66.9965V11.3102C66.9965 12.0748 67.3024 12.4571 67.8854 12.4571C68.7552 12.4571 69.2713 11.4822 69.2713 9.86699V4.63894H72.7025Z" fill="#0C0C0C"/>
<path d="M72.7025 4.63894V14.6745H69.3477C69.3573 13.929 69.472 13.4129 69.8638 12.3902L69.6727 12.2946C68.8794 14.0246 67.7516 14.8274 66.2319 14.8274C64.4351 14.8274 63.5653 13.9194 63.5653 12.0939V4.63894H66.9965V11.3102C66.9965 12.0748 67.3024 12.4571 67.8854 12.4571C68.7552 12.4571 69.2713 11.4822 69.2713 9.86699V4.63894H72.7025Z" fill="black" fill-opacity="0.2"/>
<path d="M72.7025 4.63894V14.6745H69.3477C69.3573 13.929 69.472 13.4129 69.8638 12.3902L69.6727 12.2946C68.8794 14.0246 67.7516 14.8274 66.2319 14.8274C64.4351 14.8274 63.5653 13.9194 63.5653 12.0939V4.63894H66.9965V11.3102C66.9965 12.0748 67.3024 12.4571 67.8854 12.4571C68.7552 12.4571 69.2713 11.4822 69.2713 9.86699V4.63894H72.7025Z" fill="black" fill-opacity="0.2"/>
<path d="M72.7025 4.63894V14.6745H69.3477C69.3573 13.929 69.472 13.4129 69.8638 12.3902L69.6727 12.2946C68.8794 14.0246 67.7516 14.8274 66.2319 14.8274C64.4351 14.8274 63.5653 13.9194 63.5653 12.0939V4.63894H66.9965V11.3102C66.9965 12.0748 67.3024 12.4571 67.8854 12.4571C68.7552 12.4571 69.2713 11.4822 69.2713 9.86699V4.63894H72.7025Z" fill="black" fill-opacity="0.2"/>
<path d="M72.7025 4.63894V14.6745H69.3477C69.3573 13.929 69.472 13.4129 69.8638 12.3902L69.6727 12.2946C68.8794 14.0246 67.7516 14.8274 66.2319 14.8274C64.4351 14.8274 63.5653 13.9194 63.5653 12.0939V4.63894H66.9965V11.3102C66.9965 12.0748 67.3024 12.4571 67.8854 12.4571C68.7552 12.4571 69.2713 11.4822 69.2713 9.86699V4.63894H72.7025Z" fill="black" fill-opacity="0.2"/>
<path d="M76.3414 14.8274C74.2769 14.8274 73.2543 13.2313 73.2543 10.0295V9.28397C73.2543 6.08215 74.2769 4.48602 76.3414 4.48602C77.9853 4.48602 78.9602 5.43223 79.5528 6.98057L79.7535 6.885C79.3807 5.73808 79.2278 4.87789 79.2278 3.84566V1.29376H82.6686V14.6745H79.2469C79.266 14.1966 79.4381 13.432 79.763 12.4284L79.5528 12.3424C78.9984 13.9194 78.0618 14.8274 76.3414 14.8274ZM77.8993 12.5527C78.7786 12.5527 79.2278 11.7498 79.2278 10.1442V9.18839C79.2278 7.59226 78.7786 6.76075 77.8993 6.76075C77.0964 6.76075 76.695 7.49669 76.695 9.02591V10.3162C76.695 11.8263 77.0964 12.5527 77.8993 12.5527Z" fill="#0C0C0C"/>
<path d="M76.3414 14.8274C74.2769 14.8274 73.2543 13.2313 73.2543 10.0295V9.28397C73.2543 6.08215 74.2769 4.48602 76.3414 4.48602C77.9853 4.48602 78.9602 5.43223 79.5528 6.98057L79.7535 6.885C79.3807 5.73808 79.2278 4.87789 79.2278 3.84566V1.29376H82.6686V14.6745H79.2469C79.266 14.1966 79.4381 13.432 79.763 12.4284L79.5528 12.3424C78.9984 13.9194 78.0618 14.8274 76.3414 14.8274ZM77.8993 12.5527C78.7786 12.5527 79.2278 11.7498 79.2278 10.1442V9.18839C79.2278 7.59226 78.7786 6.76075 77.8993 6.76075C77.0964 6.76075 76.695 7.49669 76.695 9.02591V10.3162C76.695 11.8263 77.0964 12.5527 77.8993 12.5527Z" fill="black" fill-opacity="0.2"/>
<path d="M76.3414 14.8274C74.2769 14.8274 73.2543 13.2313 73.2543 10.0295V9.28397C73.2543 6.08215 74.2769 4.48602 76.3414 4.48602C77.9853 4.48602 78.9602 5.43223 79.5528 6.98057L79.7535 6.885C79.3807 5.73808 79.2278 4.87789 79.2278 3.84566V1.29376H82.6686V14.6745H79.2469C79.266 14.1966 79.4381 13.432 79.763 12.4284L79.5528 12.3424C78.9984 13.9194 78.0618 14.8274 76.3414 14.8274ZM77.8993 12.5527C78.7786 12.5527 79.2278 11.7498 79.2278 10.1442V9.18839C79.2278 7.59226 78.7786 6.76075 77.8993 6.76075C77.0964 6.76075 76.695 7.49669 76.695 9.02591V10.3162C76.695 11.8263 77.0964 12.5527 77.8993 12.5527Z" fill="black" fill-opacity="0.2"/>
<path d="M76.3414 14.8274C74.2769 14.8274 73.2543 13.2313 73.2543 10.0295V9.28397C73.2543 6.08215 74.2769 4.48602 76.3414 4.48602C77.9853 4.48602 78.9602 5.43223 79.5528 6.98057L79.7535 6.885C79.3807 5.73808 79.2278 4.87789 79.2278 3.84566V1.29376H82.6686V14.6745H79.2469C79.266 14.1966 79.4381 13.432 79.763 12.4284L79.5528 12.3424C78.9984 13.9194 78.0618 14.8274 76.3414 14.8274ZM77.8993 12.5527C78.7786 12.5527 79.2278 11.7498 79.2278 10.1442V9.18839C79.2278 7.59226 78.7786 6.76075 77.8993 6.76075C77.0964 6.76075 76.695 7.49669 76.695 9.02591V10.3162C76.695 11.8263 77.0964 12.5527 77.8993 12.5527Z" fill="black" fill-opacity="0.2"/>
<path d="M76.3414 14.8274C74.2769 14.8274 73.2543 13.2313 73.2543 10.0295V9.28397C73.2543 6.08215 74.2769 4.48602 76.3414 4.48602C77.9853 4.48602 78.9602 5.43223 79.5528 6.98057L79.7535 6.885C79.3807 5.73808 79.2278 4.87789 79.2278 3.84566V1.29376H82.6686V14.6745H79.2469C79.266 14.1966 79.4381 13.432 79.763 12.4284L79.5528 12.3424C78.9984 13.9194 78.0618 14.8274 76.3414 14.8274ZM77.8993 12.5527C78.7786 12.5527 79.2278 11.7498 79.2278 10.1442V9.18839C79.2278 7.59226 78.7786 6.76075 77.8993 6.76075C77.0964 6.76075 76.695 7.49669 76.695 9.02591V10.3162C76.695 11.8263 77.0964 12.5527 77.8993 12.5527Z" fill="black" fill-opacity="0.2"/>
<path d="M83.4115 3.73097V1.34155H86.9192V3.73097H83.4115ZM83.4497 14.6745V4.63894H86.8809V14.6745H83.4497Z" fill="#0C0C0C"/>
<path d="M83.4115 3.73097V1.34155H86.9192V3.73097H83.4115ZM83.4497 14.6745V4.63894H86.8809V14.6745H83.4497Z" fill="black" fill-opacity="0.2"/>
<path d="M83.4115 3.73097V1.34155H86.9192V3.73097H83.4115ZM83.4497 14.6745V4.63894H86.8809V14.6745H83.4497Z" fill="black" fill-opacity="0.2"/>
<path d="M83.4115 3.73097V1.34155H86.9192V3.73097H83.4115ZM83.4497 14.6745V4.63894H86.8809V14.6745H83.4497Z" fill="black" fill-opacity="0.2"/>
<path d="M83.4115 3.73097V1.34155H86.9192V3.73097H83.4115ZM83.4497 14.6745V4.63894H86.8809V14.6745H83.4497Z" fill="black" fill-opacity="0.2"/>
<path d="M92.2116 14.9421C89.134 14.9421 87.4327 13.0497 87.4327 9.70451V9.66628C87.4327 6.28286 89.134 4.37133 92.2116 4.37133C95.2891 4.37133 97 6.28286 97 9.66628V9.70451C97 13.0497 95.2796 14.9421 92.2116 14.9421ZM92.2116 12.5909C93.0622 12.5909 93.4827 11.8837 93.4827 10.3735V8.94945C93.4827 7.42978 93.0622 6.71296 92.2116 6.71296C91.3609 6.71296 90.9595 7.42978 90.9595 8.94945V10.3735C90.9595 11.8837 91.3609 12.5909 92.2116 12.5909Z" fill="#0C0C0C"/>
<path d="M92.2116 14.9421C89.134 14.9421 87.4327 13.0497 87.4327 9.70451V9.66628C87.4327 6.28286 89.134 4.37133 92.2116 4.37133C95.2891 4.37133 97 6.28286 97 9.66628V9.70451C97 13.0497 95.2796 14.9421 92.2116 14.9421ZM92.2116 12.5909C93.0622 12.5909 93.4827 11.8837 93.4827 10.3735V8.94945C93.4827 7.42978 93.0622 6.71296 92.2116 6.71296C91.3609 6.71296 90.9595 7.42978 90.9595 8.94945V10.3735C90.9595 11.8837 91.3609 12.5909 92.2116 12.5909Z" fill="black" fill-opacity="0.2"/>
<path d="M92.2116 14.9421C89.134 14.9421 87.4327 13.0497 87.4327 9.70451V9.66628C87.4327 6.28286 89.134 4.37133 92.2116 4.37133C95.2891 4.37133 97 6.28286 97 9.66628V9.70451C97 13.0497 95.2796 14.9421 92.2116 14.9421ZM92.2116 12.5909C93.0622 12.5909 93.4827 11.8837 93.4827 10.3735V8.94945C93.4827 7.42978 93.0622 6.71296 92.2116 6.71296C91.3609 6.71296 90.9595 7.42978 90.9595 8.94945V10.3735C90.9595 11.8837 91.3609 12.5909 92.2116 12.5909Z" fill="black" fill-opacity="0.2"/>
<path d="M92.2116 14.9421C89.134 14.9421 87.4327 13.0497 87.4327 9.70451V9.66628C87.4327 6.28286 89.134 4.37133 92.2116 4.37133C95.2891 4.37133 97 6.28286 97 9.66628V9.70451C97 13.0497 95.2796 14.9421 92.2116 14.9421ZM92.2116 12.5909C93.0622 12.5909 93.4827 11.8837 93.4827 10.3735V8.94945C93.4827 7.42978 93.0622 6.71296 92.2116 6.71296C91.3609 6.71296 90.9595 7.42978 90.9595 8.94945V10.3735C90.9595 11.8837 91.3609 12.5909 92.2116 12.5909Z" fill="black" fill-opacity="0.2"/>
<path d="M92.2116 14.9421C89.134 14.9421 87.4327 13.0497 87.4327 9.70451V9.66628C87.4327 6.28286 89.134 4.37133 92.2116 4.37133C95.2891 4.37133 97 6.28286 97 9.66628V9.70451C97 13.0497 95.2796 14.9421 92.2116 14.9421ZM92.2116 12.5909C93.0622 12.5909 93.4827 11.8837 93.4827 10.3735V8.94945C93.4827 7.42978 93.0622 6.71296 92.2116 6.71296C91.3609 6.71296 90.9595 7.42978 90.9595 8.94945V10.3735C90.9595 11.8837 91.3609 12.5909 92.2116 12.5909Z" fill="black" fill-opacity="0.2"/>
<path d="M55.5229 30.5116L55.2457 27.8641L56.3258 27.7876C57.3484 27.7016 57.6638 27.3862 57.7499 27.0039L57.8359 26.612L54.9017 16.8728H58.4284L59.2791 21.0399C59.4416 21.9001 59.5849 22.8559 59.7187 24.4042H59.9194C60.0533 22.8559 60.1871 21.9097 60.34 21.0399L61.1524 16.8728H64.5262L62.0126 25.943C61.0855 29.336 59.432 30.5785 55.5229 30.5116Z" fill="#0C0C0C"/>
<path d="M55.5229 30.5116L55.2457 27.8641L56.3258 27.7876C57.3484 27.7016 57.6638 27.3862 57.7499 27.0039L57.8359 26.612L54.9017 16.8728H58.4284L59.2791 21.0399C59.4416 21.9001 59.5849 22.8559 59.7187 24.4042H59.9194C60.0533 22.8559 60.1871 21.9097 60.34 21.0399L61.1524 16.8728H64.5262L62.0126 25.943C61.0855 29.336 59.432 30.5785 55.5229 30.5116Z" fill="black" fill-opacity="0.2"/>
<path d="M55.5229 30.5116L55.2457 27.8641L56.3258 27.7876C57.3484 27.7016 57.6638 27.3862 57.7499 27.0039L57.8359 26.612L54.9017 16.8728H58.4284L59.2791 21.0399C59.4416 21.9001 59.5849 22.8559 59.7187 24.4042H59.9194C60.0533 22.8559 60.1871 21.9097 60.34 21.0399L61.1524 16.8728H64.5262L62.0126 25.943C61.0855 29.336 59.432 30.5785 55.5229 30.5116Z" fill="black" fill-opacity="0.2"/>
<path d="M55.5229 30.5116L55.2457 27.8641L56.3258 27.7876C57.3484 27.7016 57.6638 27.3862 57.7499 27.0039L57.8359 26.612L54.9017 16.8728H58.4284L59.2791 21.0399C59.4416 21.9001 59.5849 22.8559 59.7187 24.4042H59.9194C60.0533 22.8559 60.1871 21.9097 60.34 21.0399L61.1524 16.8728H64.5262L62.0126 25.943C61.0855 29.336 59.432 30.5785 55.5229 30.5116Z" fill="black" fill-opacity="0.2"/>
<path d="M55.5229 30.5116L55.2457 27.8641L56.3258 27.7876C57.3484 27.7016 57.6638 27.3862 57.7499 27.0039L57.8359 26.612L54.9017 16.8728H58.4284L59.2791 21.0399C59.4416 21.9001 59.5849 22.8559 59.7187 24.4042H59.9194C60.0533 22.8559 60.1871 21.9097 60.34 21.0399L61.1524 16.8728H64.5262L62.0126 25.943C61.0855 29.336 59.432 30.5785 55.5229 30.5116Z" fill="black" fill-opacity="0.2"/>
<path d="M73.7373 16.8728V26.9083H70.3825C70.3921 26.1628 70.5068 25.6467 70.8987 24.6241L70.7075 24.5285C69.9142 26.2584 68.7864 27.0613 67.2667 27.0613C65.4699 27.0613 64.6002 26.1533 64.6002 24.3278V16.8728H68.0314V23.544C68.0314 24.3086 68.3372 24.691 68.9202 24.691C69.79 24.691 70.3061 23.7161 70.3061 22.1008V16.8728H73.7373Z" fill="#0C0C0C"/>
<path d="M73.7373 16.8728V26.9083H70.3825C70.3921 26.1628 70.5068 25.6467 70.8987 24.6241L70.7075 24.5285C69.9142 26.2584 68.7864 27.0613 67.2667 27.0613C65.4699 27.0613 64.6002 26.1533 64.6002 24.3278V16.8728H68.0314V23.544C68.0314 24.3086 68.3372 24.691 68.9202 24.691C69.79 24.691 70.3061 23.7161 70.3061 22.1008V16.8728H73.7373Z" fill="black" fill-opacity="0.2"/>
<path d="M73.7373 16.8728V26.9083H70.3825C70.3921 26.1628 70.5068 25.6467 70.8987 24.6241L70.7075 24.5285C69.9142 26.2584 68.7864 27.0613 67.2667 27.0613C65.4699 27.0613 64.6002 26.1533 64.6002 24.3278V16.8728H68.0314V23.544C68.0314 24.3086 68.3372 24.691 68.9202 24.691C69.79 24.691 70.3061 23.7161 70.3061 22.1008V16.8728H73.7373Z" fill="black" fill-opacity="0.2"/>
<path d="M73.7373 16.8728V26.9083H70.3825C70.3921 26.1628 70.5068 25.6467 70.8987 24.6241L70.7075 24.5285C69.9142 26.2584 68.7864 27.0613 67.2667 27.0613C65.4699 27.0613 64.6002 26.1533 64.6002 24.3278V16.8728H68.0314V23.544C68.0314 24.3086 68.3372 24.691 68.9202 24.691C69.79 24.691 70.3061 23.7161 70.3061 22.1008V16.8728H73.7373Z" fill="black" fill-opacity="0.2"/>
<path d="M73.7373 16.8728V26.9083H70.3825C70.3921 26.1628 70.5068 25.6467 70.8987 24.6241L70.7075 24.5285C69.9142 26.2584 68.7864 27.0613 67.2667 27.0613C65.4699 27.0613 64.6002 26.1533 64.6002 24.3278V16.8728H68.0314V23.544C68.0314 24.3086 68.3372 24.691 68.9202 24.691C69.79 24.691 70.3061 23.7161 70.3061 22.1008V16.8728H73.7373Z" fill="black" fill-opacity="0.2"/>
<path d="M78.5996 27.1377C75.694 27.1377 74.0884 26.0481 74.1075 24.0793L77.3858 23.6014C77.338 24.5094 77.7681 25.0159 78.5805 25.0159C79.1826 25.0159 79.5171 24.7674 79.5171 24.3564C79.5171 23.8403 79.0679 23.5249 77.8541 23.0757L76.6498 22.6265C75.4455 22.1868 74.2604 21.3075 74.2604 19.807C74.2604 17.7903 75.7514 16.6434 78.4467 16.6434C81.2566 16.6434 82.6998 17.6852 82.7094 19.5585L79.5458 19.979C79.6127 19.1571 79.2304 18.7365 78.4944 18.7365C77.9114 18.7365 77.5769 18.9659 77.5769 19.3769C77.5769 19.807 77.9688 20.1224 79.1826 20.5334L80.3869 20.9444C81.5911 21.3553 83.0343 22.0435 83.0343 23.9837C83.0343 26.0004 81.4382 27.1377 78.5996 27.1377Z" fill="#0C0C0C"/>
<path d="M78.5996 27.1377C75.694 27.1377 74.0884 26.0481 74.1075 24.0793L77.3858 23.6014C77.338 24.5094 77.7681 25.0159 78.5805 25.0159C79.1826 25.0159 79.5171 24.7674 79.5171 24.3564C79.5171 23.8403 79.0679 23.5249 77.8541 23.0757L76.6498 22.6265C75.4455 22.1868 74.2604 21.3075 74.2604 19.807C74.2604 17.7903 75.7514 16.6434 78.4467 16.6434C81.2566 16.6434 82.6998 17.6852 82.7094 19.5585L79.5458 19.979C79.6127 19.1571 79.2304 18.7365 78.4944 18.7365C77.9114 18.7365 77.5769 18.9659 77.5769 19.3769C77.5769 19.807 77.9688 20.1224 79.1826 20.5334L80.3869 20.9444C81.5911 21.3553 83.0343 22.0435 83.0343 23.9837C83.0343 26.0004 81.4382 27.1377 78.5996 27.1377Z" fill="black" fill-opacity="0.2"/>
<path d="M78.5996 27.1377C75.694 27.1377 74.0884 26.0481 74.1075 24.0793L77.3858 23.6014C77.338 24.5094 77.7681 25.0159 78.5805 25.0159C79.1826 25.0159 79.5171 24.7674 79.5171 24.3564C79.5171 23.8403 79.0679 23.5249 77.8541 23.0757L76.6498 22.6265C75.4455 22.1868 74.2604 21.3075 74.2604 19.807C74.2604 17.7903 75.7514 16.6434 78.4467 16.6434C81.2566 16.6434 82.6998 17.6852 82.7094 19.5585L79.5458 19.979C79.6127 19.1571 79.2304 18.7365 78.4944 18.7365C77.9114 18.7365 77.5769 18.9659 77.5769 19.3769C77.5769 19.807 77.9688 20.1224 79.1826 20.5334L80.3869 20.9444C81.5911 21.3553 83.0343 22.0435 83.0343 23.9837C83.0343 26.0004 81.4382 27.1377 78.5996 27.1377Z" fill="black" fill-opacity="0.2"/>
<path d="M78.5996 27.1377C75.694 27.1377 74.0884 26.0481 74.1075 24.0793L77.3858 23.6014C77.338 24.5094 77.7681 25.0159 78.5805 25.0159C79.1826 25.0159 79.5171 24.7674 79.5171 24.3564C79.5171 23.8403 79.0679 23.5249 77.8541 23.0757L76.6498 22.6265C75.4455 22.1868 74.2604 21.3075 74.2604 19.807C74.2604 17.7903 75.7514 16.6434 78.4467 16.6434C81.2566 16.6434 82.6998 17.6852 82.7094 19.5585L79.5458 19.979C79.6127 19.1571 79.2304 18.7365 78.4944 18.7365C77.9114 18.7365 77.5769 18.9659 77.5769 19.3769C77.5769 19.807 77.9688 20.1224 79.1826 20.5334L80.3869 20.9444C81.5911 21.3553 83.0343 22.0435 83.0343 23.9837C83.0343 26.0004 81.4382 27.1377 78.5996 27.1377Z" fill="black" fill-opacity="0.2"/>
<path d="M78.5996 27.1377C75.694 27.1377 74.0884 26.0481 74.1075 24.0793L77.3858 23.6014C77.338 24.5094 77.7681 25.0159 78.5805 25.0159C79.1826 25.0159 79.5171 24.7674 79.5171 24.3564C79.5171 23.8403 79.0679 23.5249 77.8541 23.0757L76.6498 22.6265C75.4455 22.1868 74.2604 21.3075 74.2604 19.807C74.2604 17.7903 75.7514 16.6434 78.4467 16.6434C81.2566 16.6434 82.6998 17.6852 82.7094 19.5585L79.5458 19.979C79.6127 19.1571 79.2304 18.7365 78.4944 18.7365C77.9114 18.7365 77.5769 18.9659 77.5769 19.3769C77.5769 19.807 77.9688 20.1224 79.1826 20.5334L80.3869 20.9444C81.5911 21.3553 83.0343 22.0435 83.0343 23.9837C83.0343 26.0004 81.4382 27.1377 78.5996 27.1377Z" fill="black" fill-opacity="0.2"/>
<path d="M89.6839 16.7199C91.7388 16.7199 92.7615 18.316 92.7615 21.5178V22.2633C92.7615 25.4651 91.7388 27.0613 89.6839 27.0613C88.0304 27.0613 87.0651 26.115 86.463 24.5667L86.2623 24.6623C86.635 25.8092 86.7879 26.6694 86.7879 27.7016V30.2535H83.3567V16.8728H86.7784C86.7497 17.3507 86.5872 18.1153 86.2527 19.1188L86.463 19.1953C87.0173 17.6278 87.9635 16.7199 89.6839 16.7199ZM88.1165 18.9946C87.2372 18.9946 86.7879 19.7974 86.7879 21.4031V22.3589C86.7879 23.955 87.2372 24.7865 88.1165 24.7865C88.9193 24.7865 89.3207 24.0506 89.3207 22.5214V21.2311C89.3207 19.721 88.9193 18.9946 88.1165 18.9946Z" fill="#0C0C0C"/>
<path d="M89.6839 16.7199C91.7388 16.7199 92.7615 18.316 92.7615 21.5178V22.2633C92.7615 25.4651 91.7388 27.0613 89.6839 27.0613C88.0304 27.0613 87.0651 26.115 86.463 24.5667L86.2623 24.6623C86.635 25.8092 86.7879 26.6694 86.7879 27.7016V30.2535H83.3567V16.8728H86.7784C86.7497 17.3507 86.5872 18.1153 86.2527 19.1188L86.463 19.1953C87.0173 17.6278 87.9635 16.7199 89.6839 16.7199ZM88.1165 18.9946C87.2372 18.9946 86.7879 19.7974 86.7879 21.4031V22.3589C86.7879 23.955 87.2372 24.7865 88.1165 24.7865C88.9193 24.7865 89.3207 24.0506 89.3207 22.5214V21.2311C89.3207 19.721 88.9193 18.9946 88.1165 18.9946Z" fill="black" fill-opacity="0.2"/>
<path d="M89.6839 16.7199C91.7388 16.7199 92.7615 18.316 92.7615 21.5178V22.2633C92.7615 25.4651 91.7388 27.0613 89.6839 27.0613C88.0304 27.0613 87.0651 26.115 86.463 24.5667L86.2623 24.6623C86.635 25.8092 86.7879 26.6694 86.7879 27.7016V30.2535H83.3567V16.8728H86.7784C86.7497 17.3507 86.5872 18.1153 86.2527 19.1188L86.463 19.1953C87.0173 17.6278 87.9635 16.7199 89.6839 16.7199ZM88.1165 18.9946C87.2372 18.9946 86.7879 19.7974 86.7879 21.4031V22.3589C86.7879 23.955 87.2372 24.7865 88.1165 24.7865C88.9193 24.7865 89.3207 24.0506 89.3207 22.5214V21.2311C89.3207 19.721 88.9193 18.9946 88.1165 18.9946Z" fill="black" fill-opacity="0.2"/>
<path d="M89.6839 16.7199C91.7388 16.7199 92.7615 18.316 92.7615 21.5178V22.2633C92.7615 25.4651 91.7388 27.0613 89.6839 27.0613C88.0304 27.0613 87.0651 26.115 86.463 24.5667L86.2623 24.6623C86.635 25.8092 86.7879 26.6694 86.7879 27.7016V30.2535H83.3567V16.8728H86.7784C86.7497 17.3507 86.5872 18.1153 86.2527 19.1188L86.463 19.1953C87.0173 17.6278 87.9635 16.7199 89.6839 16.7199ZM88.1165 18.9946C87.2372 18.9946 86.7879 19.7974 86.7879 21.4031V22.3589C86.7879 23.955 87.2372 24.7865 88.1165 24.7865C88.9193 24.7865 89.3207 24.0506 89.3207 22.5214V21.2311C89.3207 19.721 88.9193 18.9946 88.1165 18.9946Z" fill="black" fill-opacity="0.2"/>
<path d="M89.6839 16.7199C91.7388 16.7199 92.7615 18.316 92.7615 21.5178V22.2633C92.7615 25.4651 91.7388 27.0613 89.6839 27.0613C88.0304 27.0613 87.0651 26.115 86.463 24.5667L86.2623 24.6623C86.635 25.8092 86.7879 26.6694 86.7879 27.7016V30.2535H83.3567V16.8728H86.7784C86.7497 17.3507 86.5872 18.1153 86.2527 19.1188L86.463 19.1953C87.0173 17.6278 87.9635 16.7199 89.6839 16.7199ZM88.1165 18.9946C87.2372 18.9946 86.7879 19.7974 86.7879 21.4031V22.3589C86.7879 23.955 87.2372 24.7865 88.1165 24.7865C88.9193 24.7865 89.3207 24.0506 89.3207 22.5214V21.2311C89.3207 19.721 88.9193 18.9946 88.1165 18.9946Z" fill="black" fill-opacity="0.2"/>
</svg>
